<?xml version="1.0" encoding="UTF-8"?>
<!-- Generator: Adobe Illustrator 16.0.0, SVG Export Plug-In . SVG Version: 6.00 Build 0)  -->
<svg xmlns="http://www.w3.org/2000/svg" xmlns:xlink="http://www.w3.org/1999/xlink" id="Layer_1" x="0px" y="0px" width="700.309px" height="183.543px" viewBox="0 0 700.309 183.543" xml:space="preserve">
<path fill="#0E3E1F" d="M190.051,13.664c0.117-0.121,0.218-0.212,0.363-0.315c-0.139,0.101-0.24,0.22-0.369,0.321  C190.045,13.67,190.044,13.667,190.051,13.664"></path>
<path fill="#0E3E1F" d="M144.563,23.406c-2.975,4.867-0.937,10.536-1.991,15.891c-1.901,4.521-2.46,9.209-1.346,13.465  c2.634,6.843,12.242,5.948,18.182,6.077c2.669-0.099,5.259-1.195,7.927-1.715c-1.83,2.184-5,2.535-7.582,3.22  c-6.016,1.373-13.458,0.746-18.586-3.147c-6.651-8.993,0.557-19.565,0.668-29.265C142.657,26.259,143.164,24.332,144.563,23.406"></path>
<path fill="#0E3E1F" d="M171.708,17.267c1.064,0.717,2.798,1.653,2.531,3.326c-0.218,1.508-0.93,3.128-2.094,4.14  c-1.388,0.845-2.776,1.409-4.289,0.917c-1.619-0.437-2.299-2.327-2.641-3.832c-0.065-1.504,1.101-2.795,1.982-3.803  C168.642,17.005,170.091,16.83,171.708,17.267 M167.165,18.864c-1.039,1.106-1.201,3.082-0.499,4.474  c0.76,0.923,2.106,1.84,3.436,1.602c1.156-0.296,2.376-1.059,2.774-2.28c0.164-1.396,0.037-3.078-1.184-4.056  C170.405,17.221,168.381,17.809,167.165,18.864"></path>
<path fill="#0E3E1F" d="M171.536,19.319c0.895,1.035,0.853,2.667,0.072,3.559c-0.986,0.751-2.423,0.362-3.269-0.324  c-0.402-0.787-1.044-1.576-0.51-2.468C168.365,18.697,170.488,17.992,171.536,19.319 M169.493,19.75  c-0.005,0.345-0.746,1.238-0.134,1.444c0.272-0.481,1.373-0.698,0.957-1.518C169.974,19.68,169.697,19.477,169.493,19.75"></path>
<path fill="#0E3E1F" d="M201.942,23.2c-3.69,1.582-6.129,3.515-8.819,6.15c-2.145,1.276-5.575,4.712-8.014,2.393  c0.296-6.445,4.083-10.553,8.072-14.249c1.865-1.457,4.69-4.389,1.667-7.048c-13.404-5.787-31.039-5.165-38.896-3.949  c-14.094,3.304-25.068,5.4-38.942,8.255c-12.03,2.376-28.684,6.359-42.969,7.945c-13.006-0.986-25.587,2.428-38.318,6.408  c-0.135,0.107-0.258,0.227-0.362,0.365c-0.009,0.033-0.146,0.267-0.16,0.31c-0.076,0.216-0.048,0.111-0.117,0.463  c-0.001,0.059-0.002,0.118-0.003,0.178c1.002,5.75-0.354,12.161-2.746,17.939c-0.078,0.159-0.227,0.541-0.263,0.623  c-1.007,2.34-2.178,4.566-3.424,6.592c0.008,0.178,0.021,0.354,0.043,0.53c0.007,0.054,0.01,0.086,0.013,0.114  c0.01,0.026,0.02,0.055,0.036,0.106c0.024,0.073,0.057,0.147,0.089,0.221c3.11-0.977,6.617-2.802,9.865-3.124  c-3.567,4.535-7.642,8.491-10.621,13.353c-18.828,25.879-9.661,53.703-3.245,66.763c1.167,5.664,0.256,11.946,3.721,16.861  c1.479,2.097,3.941,4.083,6.628,4.139c1.769,0.036,3.315-1.211,3.468-2.742c4.597,4.064,8.546,6.619,18.5,11.119  c8.373,3.785,11.759,5.707,19.614,10.459c12.432,7.521,23.283,9.693,28.953,10.16c1.989,0.164,1.358-2.061,0.251-2.959  c-1.509-1.094-1.965-0.916-3.903-2.992c-4.253-4.559-7.087-9.177-9.543-14.676c-0.174-0.376-0.381-0.892-0.588-1.351  c-0.626-1.474-1.234-3.012-1.839-4.63c-5.469-13.362-2.321-14.08-3.111-27.196c-0.008-0.114,0.069-1.407-0.169-1.825  c-0.383-0.674-0.674-1.01-1.494-0.819c-0.057,0.012-0.118,0.038-0.177,0.054c-0.541,0.225-1.955,0.864-2.85,1.37  c-2.797,1.527-5.922,2.9-7.723,5.232c-3.594,4.65-4.458,6.948-7.685,9.449c-3.997,1.069-5.294,0.101-10.569-0.508  c-5.989-0.688-6.78-3.555-7.756-4.788c-0.647-0.818-1.471-8.761-1.471-8.761c0.225-6.338,4.081-14.345,10.092-19.489  c0.412-0.351,0.683-0.433,0.683-0.433l0.153,0.84c0.529,4.344,0.052,8.783,0.496,13.375l1.263,1.247  c3.413-1.943,6.577-4.386,8.48-8.077c3.966-7.047,2.992-17.413,3.073-20.62l0.155-0.103c13.79-11.49,29.114-10.694,45.401-14.345  c2.958-0.663,3.337-0.783,6.753-1.716c0.242-0.065,0.446,0.191,0.324,0.409c-0.615,1.096-1.3,2.17-2.011,3.237  c-0.014,0.033-0.028,0.065-0.042,0.098c-0.135,0.609-0.039,1.289,0.273,1.82c0.021,0.025,0.041,0.049,0.062,0.074  c0.282,0.255,0.618,0.473,0.983,0.658c0.037,0.018,0.077,0.028,0.118,0.03c1.582,0.064,3.378-0.018,4.977,0.667  c0.01,0.004,0.021,0.008,0.03,0.011c5.299,1.389,9.422,4.69,12.783,8.558l0.025,0.025c0.628,0.51,4.553,3.484,4.745,3.576  c1.25,0.602,1.895-0.323,1.903-0.347c3.226-9.16,5.055-19.201,1.972-28.176c6.519-2.791,17.29-9.617,22.742-13.822  c11.261-9.559,24.431-16.02,30.536-30.018C203.291,25.445,203.116,23.862,201.942,23.2 M36.688,152.361  c-0.255-0.993-0.768-1.979-1.29-2.793c-0.167-0.261-0.66-0.095-0.528,0.223c0.245,0.592,0.484,1.193,0.632,1.818  c0.092,0.392,0.143,0.79,0.204,1.186c-0.481,0.136-0.985,0.193-1.398,0.169c-0.579-0.855-0.563-2.211-0.844-3.163  c-0.285-0.966-0.687-1.861-1.191-2.731c-0.186-0.321-0.648-0.039-0.492,0.287c0.656,1.366,1.064,2.749,1.204,4.26  c0.036,0.392,0.082,0.744,0.173,1.076c-0.712-0.268-1.367-0.682-1.95-1.172c-0.005-0.024-0.011-0.05-0.02-0.074  c-0.551-1.485-0.488-3.067-0.917-4.577c-0.4-1.41-1.08-2.767-1.657-4.112c-0.131-0.304-0.641-0.087-0.536,0.227  c0.532,1.601,1.239,3.196,1.36,4.895c0.045,0.629,0.06,1.246,0.136,1.843c-1.042-1.483-1.691-3.226-2.1-4.996  c-0.635-2.749-0.765-5.548-1.148-8.296c0.075,0.137,0.149,0.273,0.222,0.404c0,0,3.072,6.571,9.441,12.533  c0.439,0.411,0.863,0.804,1.278,1.185C37.635,151.356,37.294,151.959,36.688,152.361 M179.944,47.982  c-8.448,6.971-19.209,17.093-30.359,21.937c-0.383-1.042-0.83-2.072-1.356-3.082c-0.162-0.312-0.633-0.116-0.518,0.216  c2.082,6.021,3.743,15.665-2.322,27.788c-0.091,0.184-0.343,0.211-0.474,0.051c-0.498-0.614-0.706-0.866-1.262-1.444  c-0.25-1.224,0.033-2.417,0.294-3.521c0.4-1.697,0.873-3.326,1.134-5.061c0.553-3.678,0.574-7.312-0.199-10.96  c-0.06-0.284-0.593-0.189-0.541,0.121c0.623,3.604,0.725,7.403-0.054,10.995c-0.346,1.592-0.833,3.55-1.685,4.951  c-0.289,0.477-0.928,1.036-1.355,1.157c-0.628-0.553-0.818-0.71-1.489-1.218c0.008-0.909-0.097-1.701-0.07-2.571  c0.039-1.192,0.303-2.441,0.39-3.668c0.022-0.304-0.537-0.3-0.57,0c-0.151,1.41-0.44,2.491-1.215,3.663  c-0.238,0.358-0.459,0.71-0.642,1.077c-0.387-0.252-0.555-0.362-0.952-0.597c-0.07-1.035,0.425-4.546,0.664-6.55  c0.31-2.59,0.321-5.267,0.12-7.865c-0.023-0.302-0.587-0.304-0.57,0c0.145,2.632,0.009,5.17-0.448,7.767  c-0.216,1.223-0.587,2.424-1.106,3.554c-0.286,0.623-0.67,1.428-1.057,1.781c-0.613-0.308-0.738-0.369-1.365-0.634  c-0.233-0.957-0.04-3.256-0.013-4.814c0.033-1.801,0.125-3.626,0.275-5.416c0.026-0.307-0.543-0.304-0.578,0  c-0.213,1.863-0.148,3.889-0.642,5.698c-0.343,1.256-0.747,3.155-1.074,3.739c-0.858-0.308-1.115-0.397-1.984-0.614  c-0.048-0.789,0.549-3.207,0.752-4.759c0.282-2.161,0.5-4.313,0.484-6.495c-0.002-0.309-0.569-0.31-0.578,0  c-0.054,2.068-0.255,4.151-0.838,6.143c-0.466,1.592-1.21,3.112-1.718,4.689c-0.388-0.072-0.774-0.134-1.161-0.186  c-0.165-0.021-0.273-0.177-0.235-0.338c0.756-3.167,1.401-6.828,0.772-10.206c-0.034-0.182-0.237-0.28-0.404-0.196l-0.204,0.101  c-0.086,0.043-0.145,0.125-0.155,0.221c-0.14,1.298-0.159,2.864-0.856,3.838l-0.044,0.05c-1.826,1.739-4.721,2.172-7.219,2.603  c-0.011,0.001-0.021,0.002-0.032,0.004c-17.578,0.991-31.896,2.292-46.363,14.662l0.892-4.434c-3.485,3.865-2.95,9.879-3.002,14.725  c-1.385,6.369-2.087,14.482-9.179,16.611l0.035-1.768c0.852-1.438,2.639-3.847,3.333-5.226c1.187-2.364,2.151-4.867,3.167-7.308  c0.123-0.298-0.428-0.383-0.55-0.123c-0.952,2.038-1.816,4.127-2.823,6.139c-0.506,1.009-1.052,1.946-1.836,2.765  c-0.379,0.396-0.804,0.626-1.232,0.847l0.053-2.615c0.465-1.104,1.262-2.357,1.764-3.36c0.504-1.008,0.979-2.024,1.368-3.082  c0.8-2.174,1.391-4.582,1.451-6.906c0.009-0.312-0.528-0.293-0.569,0c-0.331,2.348-0.774,4.537-1.738,6.715  c-0.487,1.097-1.059,2.224-1.786,3.185c-0.116,0.154-0.238,0.302-0.361,0.448c0.028-1.17-0.218-1.852-0.588-3.037  c0.214-1.375,0.876-2.324,1.025-3.383c0.04-0.292-0.467-0.279-0.56-0.062c-0.277,0.648-0.555,1.289-0.939,1.859  c-0.464-1.79-0.785-3.415,1.213-5.22c0,0,1.447-1.783,0.361-2.278c-2.246,2.601-4.818,5.374-3.042,8.873  c-6.84,3.05-12.514,13.589-12.62,20.101c-3.178-2.148-8.761-1.966-12.99-5.325c-3.104-2.468-5.138-8.737-6.149-13.436  c-0.11-1.13-11.188-53.404,70.516-83.363c1.051-0.385,0.718-1.384-0.45-0.958c-0.332,0.121-79.026,25.453-71.018,84.743  c1.215,6.612,3.784,12.334,8.024,14.838c5.934,3.505,7.955,1.398,11.88,5.322c0.057,0.071,0.106,0.143,0.156,0.213  c-2.421-1.215-5.001-1.915-7.732-2.166c-0.298-0.026-0.397,0.417-0.076,0.452c2.982,0.328,5.796,1.324,8.353,2.873  c0.05,0.192,0.051,0.083,0.068,0.27c-0.114,0.319-3.169-0.951-5.678-0.929c-0.368,0.004-0.357,0.442,0,0.47  c2.041,0.151,5.624,1.423,5.631,1.85c-0.088,0.464-0.094,0.485-0.32,0.723c-1.313,0.019-2.543-0.516-3.762-0.795  c-0.278-0.062-0.569,0.309-0.234,0.449c0.826,0.344,1.679,0.611,2.519,0.915c-0.652,0.177-1.132,0.485-1.674,0.943  c0,0,1.949,1.83,4.313,3.664c2.89,2.243,2.968,3.731,12.679,5.586c6.034,0.248,7.874,0.516,10.446-1.192  c3.811-2.532,1.569-7.204,13.901-11.878c0.933-0.354,1.908,0.496,1.816,1.489c-0.001,0.018-0.003,0.036-0.005,0.055  c-0.027,0.261-0.027,0.263-0.052,0.519c-1.698,0.742-5.604,2.858-7.529,4.747c-2.735,2.688-4.776,6.701-8.716,7.759  c-0.359,0.096-0.177,0.52,0.151,0.443c3.584-0.811,5.532-3.959,7.973-6.4c1.348-1.352,2.998-2.335,4.676-3.222  c1.036-0.546,2.459-0.996,3.213-0.883c-0.155,1.718-0.204,2.239-0.248,3.718c-4.08,0.258-6.962,6.997-11.39,8.185  c-0.364,0.098-0.179,0.526,0.154,0.451c2.173-0.494,3.799-1.854,5.466-3.259c1.801-1.518,4.377-3.11,5.742-2.258  c0.012,1.721,0.011,1.868,0.269,3.484c-0.466,0.628-4.036,2.721-6.108,3.645c-2.573,1.15-5.322,1.923-8.156,1.636  c-0.33-0.034-0.438,0.452-0.083,0.502c2.601,0.356,5.198-0.114,7.673-0.941c2.279-0.762,6.337-2.018,7.185-2.098  c0.249,1.107,0.378,1.573,0.78,2.746c-0.391,0.37-2.925,1.763-3.755,2.018c-1.735,0.532-3.365,1.126-5.162,1.456  c-3.82,0.701-7.905,0.496-11.55-0.875c-0.325-0.122-0.723,0.295-0.327,0.453c3.501,1.404,7.241,1.688,10.973,1.337  c1.986-0.189,3.991-0.24,5.97-0.503c1.059-0.142,4.71-0.805,5.113-0.549c0.42,1.006,0.68,1.569,1.218,2.683  c-0.99,0.565-4.928,2.333-7.693,2.606c-2.886,0.284-5.705,0.003-8.523-0.652c-0.329-0.076-0.504,0.336-0.151,0.445  c2.883,0.893,5.978,1.218,8.987,1.031c2.775-0.171,6.974-0.927,8.414-1.354c0.368,0.72,0.648,1.256,1.045,1.993  c-0.031,0.115-0.256,0.43-0.494,0.561c-0.53,0.292-1.08,0.447-1.676,0.596c-1.906,0.481-4.103,0.315-6.037,0.189  c-0.374-0.025-0.352,0.523,0,0.569c2.45,0.316,4.724,0.292,7.17,0.083c0.86-0.073,1.822-0.333,2.09-0.078  c0.511,0.917,0.984,1.749,1.596,2.811c0.343,0.598,0.284,0.493,0.615,1.072c-1.112,0.259-2.144,0.212-3.33,0.017  c-1.667-0.273-3.318-0.633-4.983-0.918c-3.274-0.559-6.388-1.429-9.565-2.391c-0.27-0.082-0.532,0.29-0.223,0.427  c2.998,1.33,6.177,2.407,9.306,3.384c1.597,0.499,3.264,0.828,4.908,1.133c1.464,0.271,4.516,0.35,5.253,0.726  c1.346,2.338,2.115,3.683,3.603,5.763c-0.866,0.309-2.559-0.163-3.835-0.42c-2.625-0.525-5.135-1.407-7.718-2.084  c-5.346-1.4-10.149-3.967-14.801-6.883c-0.234-0.147-0.694,0.088-0.403,0.326c4.194,3.422,9.258,5.41,14.167,7.528  c2.424,1.047,5.037,1.628,7.578,2.319c1.317,0.36,2.605,0.861,3.949,1.112c0.619,0.116,1.309,0.258,1.935,0.273  c0.215,0.006,0.897,0.139,1.027,0.331c1.268,1.594,2.329,2.677,4.017,4.157c-29.693-7.089-23.385-8.958-37.823-16.34  c-4.268-2.183-7.823-3.684-15.559-7.114c-20.497-9.238-41.668-42.135-27.86-81.796c1.495-3.538,2.839-6.1,5.127-9.005  c1.173-1.724,2.592-3.543,4.384-5.784c2.571-3.608,5.726-7.304,8.381-10.746c-3.178-0.486-6.436,0.118-9.528,0.637  c0.419-0.741,0.747-1.369,1.129-2.155c0.468-0.594,4.762-1.603,7.229-2.001c0.326-0.053,0.234-0.483-0.078-0.467  c-2.161,0.111-6.077,0.954-6.354,0.753c0.24-0.538,0.313-0.706,0.535-1.257c0.556-0.75,9.449-3.002,14.38-3.767  c0.325-0.05,0.235-0.491-0.078-0.466c-8.857,0.697-13.772,2.931-13.62,2.456c0.17-0.464,0.219-0.597,0.374-1.067  c0.315-0.771,7.421-2.972,11.362-3.584c0.391-0.06,0.18-0.505-0.158-0.466c-6.21,0.729-10.442,2.701-10.694,2.441  c0.232-0.771,0.35-1.182,0.541-1.955c0.368-0.388,1.108-0.529,1.646-0.726c1.085-0.274,2.176-0.679,3.13-1.147  c0.138-0.05,0.275-0.1,0.411-0.151c0.313-0.115,0.051-0.509-0.222-0.427l-0.311,0.093c-1.446,0.36-4.076,0.997-4.275,0.685  c0.139-0.65,0.24-1.174,0.344-1.818c0.091-0.314,5.582-2.116,8.449-2.974c2.891-0.866,5.832-1.582,8.781-2.224  c0.365-0.079,0.177-0.504-0.151-0.445c-10.626,1.912-16.777,4.646-16.884,4.277c0.062-0.51,0.118-1.018,0.157-1.52  c0.292-0.399,4.078-1.682,6.159-2.421c2.26-0.804,4.566-1.44,6.898-1.996c4.568-1.089,9.215-1.795,13.888-2.228  c0.35-0.032,0.364-0.484,0-0.462c-4.752,0.302-9.471,0.984-14.127,1.987c-2.399,0.516-4.662,1.105-7.035,1.724  c-1.888,0.493-5.938,2.209-5.689,1.642c1.556-3.556,22.254-7.582,37.836-7.935c15.561-1.933,28.4-5.431,44.555-8.555  c18.439-3.192,47.581-14.468,70.542-4.315c1.169,0.719,3.276,2.323,1.614,4.002c-7.495,5.479-9.638,15.829-10.926,24.447  c-0.312,1.428-2.335,1.649-3.429,1.154c-2.438-2.745-0.467-7.14,0.402-10.134c1.371-4.728,3.305-5.984,2.974-6.535  c-2.411,2.266-3.658,5.154-4.813,8.252c-1.315,4.024-2.369,9.461,1.228,10.869c4.616,0.68,5.439-4.283,7.073-8.111  c2.011-0.175,4.189-1.635,6.174-2.71c3.448-1.866,4.982-5.044,8.409-5.736C196.34,36.518,189.188,43.501,179.944,47.982"></path>
<path fill="#0E3E1F" d="M2.746,78.701c-1.356,13.106-0.867,26.154,2.72,38.75c0.712,1.818-0.569,4.838-0.849,6.84  c-6.416-19.319-6.049-40.046,0.503-60.437C4.558,68.278,3.229,73.701,2.746,78.701"></path>
<path fill="#0E3E1F" d="M155.442,97.37c-4.338,8.997-4.03,16.325,5.622,9.888c9.651-6.439,18.6-15.034,22.762-8.443  c4.162,6.593-5.749,19.043-12.085,26.546c-13.243,15.675-36.804,32.039-47.652,39.071c2.04-0.072,37.884-23.424,51.549-39.229  c15.558-18,15.253-25.393,10.345-30.009c-5.589-5.004-12.105-2.213-17.528,2.324c-5.427,4.538-10.777,7.465-11.991,6.922  c-1.209-0.545,3.998-9.606,7.366-13.912c22.973-29.192,35.596-35.62,35.596-35.62c-5.279,2.7-18.538,11.313-30.748,25.234  C164.123,85.338,159.311,91.008,155.442,97.37"></path>
<path fill="#0E3E1F" d="M77.971,6.309c0,0,28.914-7.96,53.065-0.298c2.182,0.615,5.69-0.922,9.562-0.998  C130.724,1.436,109.12-4.82,77.971,6.309"></path>
<path fill="#0E3E1F" d="M122.896,27.808c-0.482-0.363-1.059-0.56-1.666-0.56c-0.317-0.011-0.62,0.043-0.908,0.164  c-0.281,0.073-0.534,0.205-0.759,0.396c-0.222,0.161-0.385,0.366-0.487,0.614c-0.144,0.219-0.212,0.464-0.202,0.736  c0.028,0.525,0.26,1.026,0.689,1.349c0.482,0.364,1.06,0.559,1.667,0.559c0.317,0.012,0.62-0.043,0.907-0.164  c0.281-0.073,0.534-0.204,0.759-0.395c0.223-0.162,0.385-0.366,0.487-0.614c0.145-0.22,0.212-0.465,0.203-0.735  C123.557,28.632,123.326,28.13,122.896,27.808"></path>
<path fill="#0E3E1F" d="M113.196,38.713l-0.295-0.259c-0.245-0.247-0.538-0.41-0.876-0.491c-0.181-0.022-0.361-0.045-0.541-0.067  c-0.402,0.001-0.786,0.087-1.15,0.258c-0.284,0.12-0.527,0.291-0.73,0.516c-0.217,0.178-0.385,0.397-0.504,0.656  c-0.129,0.234-0.187,0.48-0.176,0.739c-0.037,0.252,0.004,0.495,0.123,0.728c0.15,0.311,0.376,0.548,0.676,0.714l0.327,0.228  c0.232,0.136,0.48,0.209,0.745,0.219c0.277,0.056,0.555,0.046,0.834-0.027c0.19-0.065,0.381-0.13,0.572-0.194  c0.28-0.12,0.52-0.29,0.722-0.511c0.15-0.114,0.267-0.256,0.352-0.424c0.162-0.209,0.266-0.446,0.311-0.711  C113.65,39.612,113.581,39.05,113.196,38.713"></path>
<path fill="#0E3E1F" d="M99.45,32.422c-0.188-0.16-0.4-0.271-0.637-0.331c-0.241-0.102-0.495-0.148-0.76-0.138  c-0.49,0.018-1.023,0.133-1.398,0.469c-0.331,0.295-0.579,0.669-0.579,1.132v0.355c0,0.439,0.247,0.86,0.579,1.132  c0.188,0.16,0.4,0.271,0.636,0.331c0.241,0.102,0.495,0.148,0.762,0.138c0.488-0.018,1.021-0.134,1.397-0.469  c0.331-0.295,0.579-0.67,0.579-1.132v-0.355C100.029,33.115,99.781,32.693,99.45,32.422"></path>
<path fill="#0E3E1F" d="M91.59,45.164c-2.653,0-2.659,3.423,0,3.423C94.243,48.587,94.25,45.164,91.59,45.164"></path>
<path fill="#0E3E1F" d="M77.191,45.363c-0.602-0.032-1.187,0.126-1.69,0.464c-0.27,0.167-0.49,0.381-0.661,0.64  c-0.192,0.217-0.329,0.466-0.408,0.75c-0.095,0.257-0.115,0.517-0.061,0.779c0.002,0.263,0.083,0.503,0.24,0.721  c0.316,0.419,0.787,0.706,1.322,0.735c0.602,0.032,1.189-0.127,1.691-0.464c0.269-0.167,0.49-0.381,0.66-0.642  c0.193-0.215,0.329-0.465,0.409-0.749c0.094-0.256,0.114-0.517,0.061-0.779c-0.002-0.262-0.083-0.503-0.241-0.722  C78.198,45.677,77.727,45.391,77.191,45.363"></path>
<path fill="#0E3E1F" d="M65.285,47.929c-0.138-0.347-0.421-0.697-0.781-0.84c-0.513-0.202-1.026-0.347-1.583-0.204  c-0.329,0.084-0.679,0.219-0.941,0.44c-0.145,0.122-0.279,0.268-0.412,0.406c-0.083,0.137-0.166,0.274-0.25,0.411  c-0.04,0.149-0.08,0.299-0.121,0.447c-0.062,0.39,0.103,0.783,0.344,1.072c0.491,0.587,1.387,0.808,2.123,0.619  c0.659-0.17,1.331-0.572,1.609-1.225c0.041-0.149,0.081-0.298,0.121-0.447C65.432,48.366,65.396,48.139,65.285,47.929"></path>
<path fill="#0E3E1F" d="M62.681,59.618c-0.043-0.041-0.085-0.082-0.128-0.123c-0.097-0.083-0.193-0.167-0.29-0.25  c-0.174-0.116-0.362-0.185-0.567-0.204c-0.361-0.067-0.76-0.041-1.101,0.108c-0.279,0.122-0.536,0.29-0.752,0.507  c-0.152,0.149-0.26,0.323-0.323,0.522c-0.091,0.175-0.128,0.364-0.113,0.565c-0.003,0.06-0.006,0.118-0.009,0.177  c-0.029,0.543,0.483,1.035,0.97,1.169c0.452,0.124,0.924,0.099,1.364-0.075c0.414-0.164,0.824-0.486,1.043-0.88  c0.139-0.243,0.205-0.503,0.196-0.783C62.955,60.075,62.859,59.83,62.681,59.618"></path>
<path fill="#0E3E1F" d="M48.852,56.752c-0.563-0.033-1.114,0.113-1.588,0.428c-0.446,0.298-0.849,0.779-1.008,1.299  c-0.089,0.241-0.109,0.485-0.06,0.731c0.001,0.245,0.075,0.472,0.222,0.678c0.295,0.393,0.736,0.664,1.238,0.693  c0.563,0.032,1.114-0.113,1.587-0.429c0.446-0.296,0.849-0.779,1.007-1.297c0.09-0.243,0.111-0.486,0.062-0.732  c-0.002-0.246-0.076-0.472-0.224-0.678C49.792,57.053,49.353,56.782,48.852,56.752"></path>
<path fill="#0E3E1F" d="M43.755,69.892c-0.132-0.01-0.264-0.02-0.395-0.028c-0.323-0.058-0.637-0.027-0.943,0.094  c-0.15,0.08-0.302,0.162-0.453,0.242c-0.311,0.218-0.561,0.492-0.749,0.822c-0.154,0.245-0.249,0.51-0.284,0.793  c-0.072,0.255-0.083,0.515-0.034,0.78c0.026,0.249,0.114,0.472,0.263,0.665c0.109,0.215,0.272,0.38,0.49,0.496  c0.283,0.158,0.585,0.221,0.909,0.186c0.132,0.005,0.264,0.009,0.397,0.013c0.254-0.02,0.487-0.098,0.697-0.234  c0.247-0.109,0.457-0.267,0.634-0.476c0.114-0.155,0.226-0.309,0.339-0.463c0.153-0.245,0.248-0.509,0.283-0.791  c0.055-0.17,0.069-0.344,0.043-0.522c0.012-0.25-0.037-0.491-0.146-0.722c-0.084-0.131-0.167-0.262-0.251-0.394  C44.339,70.111,44.072,69.957,43.755,69.892"></path>
<path fill="#0E3E1F" d="M33.01,84.892c-0.246,0.187-0.439,0.419-0.578,0.695c-0.151,0.301-0.234,0.619-0.247,0.955  c0.002,0.056,0.004,0.113,0.006,0.168l0.035,0.452c0.031,0.215,0.11,0.409,0.236,0.581c0.168,0.269,0.429,0.527,0.756,0.592  c0.262,0.052,0.52,0.03,0.771-0.053c0.411-0.136,0.705-0.522,0.915-0.871c0.029-0.048,0.057-0.097,0.086-0.145  c0.304-0.507,0.35-1.314,0.077-1.844c-0.191-0.369-0.473-0.682-0.893-0.791C33.776,84.529,33.335,84.655,33.01,84.892"></path>
<path fill="#0E3E1F" d="M29.738,109.536c-0.324,1.83,2.036,2.254,2.361,0.419C32.425,108.124,30.064,107.701,29.738,109.536"></path>
<path fill="#0E3E1F" d="M33.216,97.127c-0.102-0.057-0.202-0.114-0.303-0.171l-0.29-0.094c-0.163-0.032-0.322-0.023-0.478,0.026  c-0.285,0.062-0.571,0.204-0.775,0.42c-0.167,0.175-0.302,0.378-0.394,0.603c-0.108,0.265-0.125,0.673,0.016,0.933  c0.055,0.101,0.111,0.203,0.165,0.304c0.451,0.83,1.523,0.656,2.104,0.084C33.844,98.661,34.034,97.591,33.216,97.127"></path>
<path fill="#0E3E1F" d="M43.83,85.613c-1.354,2.057,1.297,3.809,2.654,1.746C47.838,85.301,45.186,83.55,43.83,85.613"></path>
<path fill="#0E3E1F" d="M56.328,68.991c-0.351,0.177-0.684,0.491-0.844,0.854c-0.134,0.301-0.178,0.735-0.006,1.036  c0.413,0.714,1.341,0.783,2.025,0.437c0.349-0.177,0.683-0.491,0.844-0.853c0.133-0.302,0.178-0.736,0.005-1.037  C57.94,68.715,57.011,68.645,56.328,68.991"></path>
<path fill="#0E3E1F" d="M76.957,57.058c-0.914,0.466-1.668,1.601-1.166,2.62c0.504,1.025,1.916,1.05,2.805,0.597  c0.914-0.465,1.668-1.6,1.166-2.619C79.258,56.631,77.846,56.606,76.957,57.058"></path>
<path fill="#0E3E1F" d="M101.48,50.93c-0.468-0.221-0.986-0.284-1.495-0.178c-0.269,0.045-0.513,0.145-0.733,0.296  c-0.223,0.111-0.412,0.265-0.567,0.464c-0.158,0.175-0.259,0.375-0.301,0.601c-0.083,0.209-0.096,0.426-0.042,0.652  c0.117,0.436,0.399,0.814,0.815,1.011c0.469,0.219,0.986,0.284,1.495,0.177c0.268-0.045,0.513-0.144,0.733-0.296  c0.223-0.11,0.412-0.264,0.567-0.463c0.158-0.175,0.258-0.375,0.301-0.601c0.082-0.21,0.097-0.427,0.041-0.652  C102.179,51.505,101.896,51.125,101.48,50.93"></path>
<path fill="#0E3E1F" d="M123.75,38.561c-0.523,0.296-1.013,0.803-1.231,1.371c-0.183,0.473-0.22,1.141,0.067,1.589  c0.685,1.066,2.114,1.103,3.138,0.524c0.523-0.296,1.012-0.803,1.231-1.371c0.183-0.473,0.221-1.14-0.067-1.589  C126.204,38.019,124.774,37.981,123.75,38.561"></path>
<path fill="#0E3E1F" d="M87.556,63.909c-0.5-0.128-1.02-0.092-1.499,0.107c-0.452,0.19-0.897,0.552-1.13,0.991  c-0.193,0.365-0.289,0.901-0.1,1.292c0.197,0.405,0.544,0.724,0.99,0.838c0.5,0.126,1.019,0.091,1.499-0.109  c0.452-0.188,0.897-0.551,1.13-0.99c0.193-0.364,0.289-0.901,0.099-1.292C88.349,64.342,88.001,64.022,87.556,63.909"></path>
<path fill="#0E3E1F" d="M71.945,68.638c-2.329,0-2.335,3.004,0,3.004C74.273,71.643,74.279,68.638,71.945,68.638"></path>
<path fill="#0E3E1F" d="M82.951,35.366c-0.489,0-1.04,0.163-1.423,0.478c-0.319,0.261-0.613,0.719-0.59,1.153  c0.057,1.029,1.055,1.63,2.013,1.63c0.49,0,1.04-0.163,1.424-0.478c0.318-0.262,0.613-0.72,0.589-1.152  C84.907,35.967,83.909,35.366,82.951,35.366"></path>
<polygon fill="#0E3E1F" points="233.773,33.345 239.52,33.345 249.468,69.679 249.592,69.679 260.344,33.345 266.151,33.345   276.842,69.679 276.964,69.679 287.099,33.345 292.537,33.345 279.684,77.093 274.061,77.093 263.248,40.02 263.125,40.02   252.25,77.093 246.563,77.093 "></polygon>
<rect x="309.757" y="33.345" fill="#0E3E1F" width="5.19" height="43.748"></rect>
<polygon fill="#0E3E1F" points="336.877,33.345 342.067,33.345 342.067,72.274 362.088,72.274 362.088,77.093 336.877,77.093 "></polygon>
<path fill="#0E3E1F" d="M378.024,33.345h16.807c1.441,0,2.967,0.165,4.572,0.495c1.607,0.33,3.203,0.856,4.789,1.576  c1.585,0.72,3.11,1.658,4.573,2.811c1.462,1.153,2.749,2.544,3.862,4.171c1.11,1.628,1.996,3.502,2.655,5.623  c0.659,2.122,0.99,4.522,0.99,7.198c0,2.679-0.331,5.078-0.99,7.2s-1.545,3.996-2.655,5.623c-1.113,1.628-2.4,3.017-3.862,4.17  c-1.463,1.154-2.988,2.091-4.573,2.811c-1.586,0.722-3.182,1.247-4.789,1.576c-1.605,0.33-3.131,0.494-4.572,0.494h-16.807V33.345z   M383.214,72.274h9.887c2.511,0,4.84-0.329,6.981-0.988c2.142-0.659,3.995-1.679,5.562-3.06c1.565-1.379,2.801-3.14,3.708-5.282  c0.905-2.142,1.359-4.717,1.359-7.725c0-3.006-0.454-5.581-1.359-7.723c-0.907-2.142-2.143-3.903-3.708-5.284  c-1.566-1.379-3.42-2.399-5.562-3.058c-2.142-0.658-4.471-0.988-6.981-0.988h-9.887V72.274z"></path>
<polygon fill="#0E3E1F" points="488.198,38.166 473.739,38.166 473.739,77.094 468.547,77.094 468.547,38.166 454.088,38.166   454.088,33.346 488.198,33.346 "></polygon>
<path fill="#0E3E1F" d="M505.727,33.346h11.184c2.102,0,4.192,0.124,6.272,0.371s3.944,0.783,5.591,1.606  c1.648,0.824,2.987,2.03,4.018,3.615c1.028,1.586,1.545,3.739,1.545,6.458c0,3.212-0.97,5.808-2.904,7.786  c-1.938,1.976-4.615,3.233-8.033,3.768l12.419,20.144h-6.364l-11.862-19.65h-6.674v19.65h-5.19V33.346z M510.917,52.625h4.634  c1.441,0,2.935-0.041,4.479-0.124c1.545-0.082,2.966-0.35,4.265-0.803c1.298-0.453,2.367-1.164,3.213-2.132  c0.844-0.967,1.266-2.357,1.266-4.17c0-1.566-0.308-2.822-0.926-3.77c-0.618-0.947-1.432-1.678-2.441-2.193s-2.142-0.855-3.397-1.02  c-1.257-0.164-2.525-0.247-3.801-0.247h-7.291V52.625z"></path>
<path fill="#0E3E1F" d="M559.731,72.83c-2.555-2.144-4.527-4.552-5.918-7.222c-1.389-2.67-2.209-5.443-2.461-8.316  s0.095-5.754,1.041-8.644c0.945-2.889,2.477-5.597,4.595-8.121c2.118-2.526,4.518-4.505,7.199-5.939  c2.681-1.433,5.458-2.276,8.331-2.528c2.874-0.252,5.746,0.074,8.617,0.977c2.871,0.904,5.586,2.427,8.142,4.572  c2.558,2.144,4.529,4.552,5.918,7.222c1.39,2.671,2.209,5.443,2.461,8.316s-0.096,5.754-1.04,8.643  c-0.945,2.891-2.477,5.598-4.596,8.122c-2.118,2.526-4.518,4.505-7.199,5.939c-2.681,1.433-5.458,2.276-8.331,2.528  s-5.745-0.073-8.615-0.977C565.003,76.499,562.289,74.975,559.731,72.83 M562.83,69.138c1.956,1.641,4.052,2.78,6.286,3.418  c2.234,0.638,4.465,0.815,6.692,0.532c2.225-0.283,4.371-0.997,6.434-2.143c2.063-1.146,3.902-2.681,5.519-4.607  c1.614-1.924,2.806-4.003,3.577-6.234c0.768-2.231,1.098-4.468,0.989-6.71c-0.108-2.241-0.672-4.407-1.687-6.496  c-1.018-2.09-2.503-3.955-4.46-5.597s-4.053-2.78-6.287-3.418c-2.235-0.638-4.465-0.815-6.691-0.532  c-2.227,0.282-4.372,0.997-6.435,2.142c-2.065,1.147-3.904,2.682-5.518,4.607c-1.615,1.926-2.809,4.004-3.576,6.234  c-0.771,2.232-1.102,4.469-0.991,6.71c0.108,2.242,0.67,4.407,1.688,6.497C559.385,65.631,560.873,67.496,562.83,69.138"></path>
<path fill="#0E3E1F" d="M649.215,60.41c0,2.39-0.301,4.655-0.896,6.797c-0.597,2.142-1.544,4.027-2.842,5.654  c-1.298,1.628-2.997,2.926-5.098,3.893c-2.103,0.968-4.655,1.453-7.662,1.453c-3.009,0-5.563-0.485-7.662-1.453  c-2.102-0.967-3.801-2.265-5.1-3.893c-1.297-1.627-2.244-3.512-2.842-5.654c-0.597-2.142-0.895-4.407-0.895-6.797V33.346h5.188  v26.323c0,1.771,0.187,3.481,0.558,5.129c0.371,1.647,0.988,3.11,1.854,4.386c0.865,1.279,2.018,2.297,3.46,3.059  c1.442,0.763,3.253,1.144,5.438,1.144c2.183,0,3.994-0.381,5.437-1.144c1.442-0.762,2.595-1.78,3.46-3.059  c0.866-1.276,1.484-2.739,1.854-4.386c0.371-1.648,0.557-3.358,0.557-5.129V33.346h5.19V60.41z"></path>
<polygon fill="#0E3E1F" points="700.309,38.166 685.85,38.166 685.85,77.094 680.66,77.094 680.66,38.166 666.201,38.166   666.201,33.346 700.309,33.346 "></polygon>
<polygon fill="#0E3E1F" points="371.82,110.374 357.361,110.374 357.361,149.303 352.17,149.303 352.17,110.374 337.711,110.374   337.711,105.554 371.82,105.554 "></polygon>
<path fill="#0E3E1F" d="M388.991,105.554h11.184c2.102,0,4.192,0.124,6.272,0.371s3.944,0.783,5.591,1.606  c1.648,0.824,2.987,2.03,4.018,3.615c1.028,1.586,1.545,3.739,1.545,6.458c0,3.212-0.97,5.808-2.904,7.786  c-1.938,1.976-4.615,3.233-8.033,3.768l12.419,20.146h-6.364l-11.862-19.651h-6.674v19.651h-5.19V105.554z M394.181,124.833h4.635  c1.44,0,2.934-0.041,4.479-0.124c1.545-0.082,2.967-0.35,4.265-0.804c1.298-0.453,2.367-1.164,3.213-2.132  c0.844-0.967,1.266-2.356,1.266-4.17c0-1.566-0.308-2.822-0.926-3.77c-0.618-0.947-1.432-1.678-2.441-2.193s-2.142-0.855-3.397-1.02  c-1.257-0.164-2.525-0.247-3.8-0.247h-7.292V124.833z"></path>
<path fill="#0E3E1F" d="M470.61,132.618c0,2.391-0.301,4.655-0.896,6.798c-0.598,2.141-1.545,4.025-2.842,5.653  c-1.298,1.628-2.997,2.926-5.098,3.893c-2.103,0.968-4.656,1.453-7.662,1.453c-3.009,0-5.563-0.485-7.663-1.453  c-2.102-0.967-3.8-2.265-5.098-3.893s-2.245-3.513-2.843-5.653c-0.597-2.143-0.896-4.407-0.896-6.798v-27.064h5.19v26.323  c0,1.771,0.186,3.48,0.557,5.129s0.987,3.11,1.854,4.386c0.865,1.279,2.018,2.298,3.46,3.061s3.253,1.143,5.438,1.143  c2.183,0,3.994-0.38,5.437-1.143s2.595-1.781,3.46-3.061c0.866-1.275,1.484-2.737,1.855-4.386c0.37-1.648,0.556-3.358,0.556-5.129  v-26.323h5.19V132.618z"></path>
<path fill="#0E3E1F" d="M513.115,113.278c-0.865-1.4-2.02-2.42-3.46-3.059c-1.442-0.638-2.945-0.958-4.512-0.958  c-1.153,0-2.286,0.145-3.398,0.433c-1.111,0.288-2.11,0.721-2.996,1.298c-0.887,0.577-1.599,1.339-2.132,2.286  c-0.536,0.948-0.805,2.06-0.805,3.337c0,0.988,0.156,1.864,0.464,2.625c0.31,0.764,0.813,1.453,1.515,2.069  c0.7,0.618,1.646,1.196,2.843,1.731c1.194,0.536,2.657,1.072,4.386,1.605c1.69,0.536,3.326,1.112,4.912,1.731  c1.586,0.618,2.987,1.4,4.203,2.347c1.214,0.949,2.182,2.132,2.904,3.555c0.721,1.421,1.081,3.202,1.081,5.345  c0,2.183-0.433,4.078-1.297,5.684c-0.865,1.607-2.01,2.936-3.431,3.986c-1.421,1.05-3.058,1.834-4.913,2.348  c-1.853,0.515-3.768,0.773-5.746,0.773c-1.276,0-2.555-0.115-3.83-0.341c-1.277-0.228-2.504-0.577-3.678-1.05  c-1.173-0.475-2.275-1.093-3.305-1.854c-1.031-0.761-1.915-1.699-2.658-2.811l4.45-3.646c0.947,1.606,2.264,2.823,3.955,3.646  c1.688,0.823,3.479,1.234,5.375,1.234c1.112,0,2.233-0.164,3.368-0.494c1.132-0.329,2.15-0.813,3.058-1.452  c0.906-0.639,1.647-1.431,2.226-2.379c0.575-0.946,0.864-2.039,0.864-3.273c0-1.361-0.227-2.462-0.68-3.308  c-0.453-0.844-1.154-1.574-2.101-2.192c-0.947-0.618-2.143-1.174-3.584-1.669c-1.442-0.494-3.132-1.07-5.066-1.73  c-1.567-0.494-3.008-1.059-4.325-1.699c-1.32-0.639-2.462-1.422-3.43-2.348c-0.97-0.927-1.731-2.04-2.286-3.336  c-0.557-1.298-0.834-2.853-0.834-4.666c0-2.101,0.411-3.934,1.235-5.499c0.823-1.566,1.936-2.874,3.337-3.924  c1.399-1.051,2.985-1.843,4.758-2.379c1.77-0.535,3.624-0.804,5.561-0.804c2.473,0,4.728,0.382,6.767,1.144  c2.039,0.762,3.861,2.091,5.469,3.985L513.115,113.278z"></path>
<polygon fill="#0E3E1F" points="567.114,110.374 552.655,110.374 552.655,149.303 547.464,149.303 547.464,110.374 533.004,110.374   533.004,105.554 567.114,105.554 "></polygon>
</svg>
